<svg width="657.8px" height="122px" xmlns="http://www.w3.org/2000/svg" viewBox="-78.88124999999997 14 657.7624999999999 122" style="background: rgba(0, 0, 0, 0)" preserveAspectRatio="xMidYMid"><defs><linearGradient id="editing-gradient-gradient" x1="0" x2="1" y1="0.5" y2="0.5" gradientUnits="objectBoundingBox"><stop offset="0" stop-color="#fd00e4"></stop><stop offset="1" stop-color="#5b00ff"></stop></linearGradient></defs><g><g transform="matrix(1.1,0,0,1.6,-8.1,193.2)"><path d="M 5.7 -56 L -8.3 -56 L -0.2 -98.2 L 13.9 -98.2 L 5.7 -56 Z M 61.4 -54.7 L 61.4 -54.7 L 61.4 -54.7 Q 53.7 -54.7 53.7 -60.7 L 53.7 -60.7 L 53.7 -60.7 Q 53.7 -63.4 54.8 -68.5 L 54.8 -68.5 L 54.8 -68.5 Q 55.9 -73.5 56.3 -75.6 L 56.3 -75.6 L 56.3 -75.6 Q 57.2 -80.3 57.2 -81.7 L 57.2 -81.7 L 57.2 -81.7 Q 57.2 -85 54.7 -85 L 54.7 -85 L 54.7 -85 Q 53.1 -85 51.6 -82.8 L 51.6 -82.8 L 51.6 -82.8 Q 50.1 -80.6 49.4 -76.2 L 49.4 -76.2 L 45.4 -56 L 32.9 -54.7 L 36.4 -72.1 L 36.4 -72.1 Q 37 -75 37.5 -78.3 L 37.5 -78.3 L 37.5 -78.3 Q 38 -81.5 38 -82.1 L 38 -82.1 L 38 -82.1 Q 38 -85 35.8 -85 L 35.8 -85 L 35.8 -85 Q 34.3 -85 32.7 -82.8 L 32.7 -82.8 L 32.7 -82.8 Q 31.1 -80.6 30.2 -76.2 L 30.2 -76.2 L 26.3 -56 L 13.7 -54.7 L 20.4 -88.6 L 30.9 -89.9 L 29.8 -83.5 L 29.8 -83.5 Q 31.5 -86.9 34.5 -88.4 L 34.5 -88.4 L 34.5 -88.4 Q 37.6 -89.9 42.4 -89.9 L 42.4 -89.9 L 42.4 -89.9 Q 45.1 -89.9 46.9 -88.6 L 46.9 -88.6 L 46.9 -88.6 Q 48.7 -87.2 49.3 -85.1 L 49.3 -85.1 L 49.3 -85.1 Q 50.4 -87.3 53.2 -88.6 L 53.2 -88.6 L 53.2 -88.6 Q 56 -89.9 59.4 -89.9 L 59.4 -89.9 L 59.4 -89.9 Q 62.8 -89.9 64.5 -89.2 L 64.5 -89.2 L 64.5 -89.2 Q 66.2 -88.5 67.2 -87.2 L 67.2 -87.2 L 67.2 -87.2 Q 69 -85 69 -80.9 L 69 -80.9 L 69 -80.9 Q 69 -76.9 67.2 -68.5 L 67.2 -68.5 L 67.2 -68.5 Q 66.3 -64.4 66.3 -62.9 L 66.3 -62.9 L 66.3 -62.9 Q 66.3 -61.4 67.2 -60.5 L 67.2 -60.5 L 67.2 -60.5 Q 68.1 -59.6 69.3 -59.5 L 69.3 -59.5 L 69.3 -59.5 Q 68.7 -57.3 66.5 -56 L 66.5 -56 L 66.5 -56 Q 64.3 -54.7 61.4 -54.7 Z M 77.1 -57.9 L 77.1 -57.9 L 77.1 -57.9 Q 75.5 -59.6 74.9 -62.2 L 74.9 -62.2 L 74.9 -62.2 Q 74.2 -64.8 74.2 -69.1 L 74.2 -69.1 L 74.2 -69.1 Q 74.2 -73.4 75.7 -77.3 L 75.7 -77.3 L 75.7 -77.3 Q 77.1 -81.2 79.8 -84 L 79.8 -84 L 79.8 -84 Q 85.3 -89.9 94.4 -89.9 L 94.4 -89.9 L 94.4 -89.9 Q 97.7 -89.9 100.1 -88.8 L 100.1 -88.8 L 111 -89.9 L 106.3 -65 L 106.3 -65 Q 106.1 -64.2 106.1 -62.8 L 106.1 -62.8 L 106.1 -62.8 Q 106.1 -61.4 106.9 -60.5 L 106.9 -60.5 L 106.9 -60.5 Q 107.8 -59.6 109.1 -59.5 L 109.1 -59.5 L 109.1 -59.5 Q 108.4 -57.3 106.1 -56 L 106.1 -56 L 106.1 -56 Q 103.8 -54.7 101.1 -54.7 L 101.1 -54.7 L 101.1 -54.7 Q 98.5 -54.7 96.8 -55.7 L 96.8 -55.7 L 96.8 -55.7 Q 95 -56.7 94.5 -58.4 L 94.5 -58.4 L 94.5 -58.4 Q 93.5 -56.8 91.3 -55.7 L 91.3 -55.7 L 91.3 -55.7 Q 89.1 -54.7 86.2 -54.7 L 86.2 -54.7 L 86.2 -54.7 Q 83.3 -54.7 80.9 -55.5 L 80.9 -55.5 L 80.9 -55.5 Q 78.6 -56.3 77.1 -57.9 Z M 90.6 -83.9 L 90.6 -83.9 L 90.6 -83.9 Q 89.8 -82.8 89.2 -80.8 L 89.2 -80.8 L 89.2 -80.8 Q 88.5 -78.9 87.5 -73.6 L 87.5 -73.6 L 87.5 -73.6 Q 86.4 -68.4 86.4 -64.7 L 86.4 -64.7 L 86.4 -64.7 Q 86.4 -61 87 -59.9 L 87 -59.9 L 87 -59.9 Q 87.6 -58.8 88.6 -58.8 L 88.6 -58.8 L 88.6 -58.8 Q 90.7 -58.8 92.2 -60.8 L 92.2 -60.8 L 92.2 -60.8 Q 93.7 -62.7 94.2 -66.2 L 94.2 -66.2 L 97.6 -84.9 L 97.6 -84.9 Q 96.3 -86.1 94.7 -86.1 L 94.7 -86.1 L 94.7 -86.1 Q 93.1 -86.1 92.2 -85.6 L 92.2 -85.6 L 92.2 -85.6 Q 91.3 -85.1 90.6 -83.9 Z M 118.7 -82.8 L 118.7 -82.8 L 118.7 -82.8 Q 120.9 -85.8 124.2 -87.9 L 124.2 -87.9 L 124.2 -87.9 Q 127.5 -89.9 131.5 -89.9 L 131.5 -89.9 L 131.5 -89.9 Q 135.6 -89.9 137.5 -88.6 L 137.5 -88.6 L 150 -89.9 L 145.7 -65.3 L 145.7 -65.3 Q 143.5 -52.8 138.7 -47.9 L 138.7 -47.9 L 138.7 -47.9 Q 134.2 -43.2 125.3 -43.2 L 125.3 -43.2 L 125.3 -43.2 Q 118.6 -43.2 114.8 -45.3 L 114.8 -45.3 L 114.8 -45.3 Q 110.9 -47.4 110.9 -50.9 L 110.9 -50.9 L 110.9 -50.9 Q 110.9 -53.6 112.9 -55.1 L 112.9 -55.1 L 112.9 -55.1 Q 114.9 -56.6 118 -56.6 L 118 -56.6 L 118 -56.6 Q 120.7 -56.6 122.7 -55.4 L 122.7 -55.4 L 122.7 -55.4 Q 123.9 -54.7 124.5 -53.8 L 124.5 -53.8 L 124.5 -53.8 Q 123 -52.5 123 -50.4 L 123 -50.4 L 123 -50.4 Q 123 -47.7 125.6 -47.7 L 125.6 -47.7 L 125.6 -47.7 Q 129.9 -47.7 132.3 -57.8 L 132.3 -57.8 L 132.3 -57.8 Q 133 -60.5 133.6 -63.3 L 133.6 -63.3 L 133.6 -63.3 Q 130.7 -59.8 124.2 -59.8 L 124.2 -59.8 L 124.2 -59.8 Q 119.6 -59.8 117 -62 L 117 -62 L 117 -62 Q 114.4 -64.1 114.4 -69.3 L 114.4 -69.3 L 114.4 -69.3 Q 114.4 -72.5 115.5 -76.1 L 115.5 -76.1 L 115.5 -76.1 Q 116.6 -79.7 118.7 -82.8 Z M 127.1 -69.1 L 127.1 -69.1 L 127.1 -69.1 Q 127.1 -64.7 129.3 -64.7 L 129.3 -64.7 L 129.3 -64.7 Q 130.8 -64.7 132.3 -66.4 L 132.3 -66.4 L 132.3 -66.4 Q 133.5 -67.7 133.9 -69.7 L 133.9 -69.7 L 137.2 -86.1 L 137.2 -86.1 Q 136.9 -86.2 136.5 -86.3 L 136.5 -86.3 L 136.5 -86.3 Q 135.9 -86.6 135.1 -86.6 L 135.1 -86.6 L 135.1 -86.6 Q 131.2 -86.6 128.9 -80.2 L 128.9 -80.2 L 128.9 -80.2 Q 127.1 -75.2 127.1 -69.1 Z M 178.5 -66.8 L 178.5 -66.8 L 178.5 -66.8 Q 180.1 -65.7 180.1 -63.3 L 180.1 -63.3 L 180.1 -63.3 Q 180.1 -60.9 178.8 -59.4 L 178.8 -59.4 L 178.8 -59.4 Q 177.6 -57.9 175.6 -56.8 L 175.6 -56.8 L 175.6 -56.8 Q 171.5 -54.7 167.1 -54.7 L 167.1 -54.7 L 167.1 -54.7 Q 162.7 -54.7 160.1 -55.7 L 160.1 -55.7 L 160.1 -55.7 Q 157.5 -56.6 155.8 -58.4 L 155.8 -58.4 L 155.8 -58.4 Q 152.4 -61.8 152.4 -68 L 152.4 -68 L 152.4 -68 Q 152.4 -77.7 157.7 -83.6 L 157.7 -83.6 L 157.7 -83.6 Q 163.3 -89.9 173.1 -89.9 L 173.1 -89.9 L 173.1 -89.9 Q 179.2 -89.9 182.2 -87.4 L 182.2 -87.4 L 182.2 -87.4 Q 184.4 -85.4 184.4 -82.3 L 184.4 -82.3 L 184.4 -82.3 Q 184.4 -71 165 -71 L 165 -71 L 165 -71 Q 164.7 -69.4 164.7 -68 L 164.7 -68 L 164.7 -68 Q 164.7 -65 166 -63.9 L 166 -63.9 L 166 -63.9 Q 167.3 -62.8 169.8 -62.8 L 169.8 -62.8 L 169.8 -62.8 Q 172.2 -62.8 174.8 -63.9 L 174.8 -63.9 L 174.8 -63.9 Q 177.4 -65 178.5 -66.8 Z M 165.4 -73.8 L 165.4 -73.8 L 165.4 -73.8 Q 169.9 -73.8 172.6 -76.6 L 172.6 -76.6 L 172.6 -76.6 Q 175.2 -79.3 175.2 -83.6 L 175.2 -83.6 L 175.2 -83.6 Q 175.2 -85.1 174.7 -85.9 L 174.7 -85.9 L 174.7 -85.9 Q 174.1 -86.7 173 -86.7 L 173 -86.7 L 173 -86.7 Q 171.9 -86.7 171 -86.2 L 171 -86.2 L 171 -86.2 Q 170.1 -85.8 169.1 -84.4 L 169.1 -84.4 L 169.1 -84.4 Q 166.7 -81.2 165.4 -73.8 Z M 205.7 -78.5 L 205.7 -78.5 L 205.7 -78.5 Q 206.6 -80.8 206.6 -82.9 L 206.6 -82.9 L 206.6 -82.9 Q 206.6 -86.7 203.5 -86.7 L 203.5 -86.7 L 203.5 -86.7 Q 201.9 -86.7 200.6 -85.2 L 200.6 -85.2 L 200.6 -85.2 Q 199.3 -83.8 199.3 -82 L 199.3 -82 L 199.3 -82 Q 199.3 -80.7 200.3 -79.7 L 200.3 -79.7 L 200.3 -79.7 Q 201.8 -78.3 205.6 -76 L 205.6 -76 L 205.6 -76 Q 209.4 -73.7 210.8 -71.8 L 210.8 -71.8 L 210.8 -71.8 Q 212.3 -69.9 212.3 -67.3 L 212.3 -67.3 L 212.3 -67.3 Q 212.3 -64.7 211 -62.3 L 211 -62.3 L 211 -62.3 Q 209.8 -60 207.5 -58.3 L 207.5 -58.3 L 207.5 -58.3 Q 202.7 -54.7 195 -54.7 L 195 -54.7 L 195 -54.7 Q 190.9 -54.7 187.7 -56.9 L 187.7 -56.9 L 187.7 -56.9 Q 184.5 -59 184.5 -61.5 L 184.5 -61.5 L 184.5 -61.5 Q 184.5 -64 186.3 -65.5 L 186.3 -65.5 L 186.3 -65.5 Q 188.1 -66.9 190.8 -66.9 L 190.8 -66.9 L 190.8 -66.9 Q 193.5 -66.9 195.2 -65.9 L 195.2 -65.9 L 195.2 -65.9 Q 194.3 -63.8 194.3 -62.4 L 194.3 -62.4 L 194.3 -62.4 Q 194.3 -58.2 197.9 -58.2 L 197.9 -58.2 L 197.9 -58.2 Q 199.5 -58.2 200.5 -59.1 L 200.5 -59.1 L 200.5 -59.1 Q 201.5 -60.1 201.5 -61.8 L 201.5 -61.8 L 201.5 -61.8 Q 201.5 -65 196 -68.5 L 196 -68.5 L 196 -68.5 Q 191.5 -71.4 190.5 -72.6 L 190.5 -72.6 L 190.5 -72.6 Q 188.8 -74.6 188.8 -77.2 L 188.8 -77.2 L 188.8 -77.2 Q 188.8 -79.7 190 -82.2 L 190 -82.2 L 190 -82.2 Q 191.2 -84.6 193.4 -86.3 L 193.4 -86.3 L 193.4 -86.3 Q 198.1 -89.9 206.2 -89.9 L 206.2 -89.9 L 206.2 -89.9 Q 210.4 -89.9 212.9 -88.3 L 212.9 -88.3 L 212.9 -88.3 Q 215.3 -86.6 215.3 -83.8 L 215.3 -83.8 L 215.3 -83.8 Q 215.3 -81 213.6 -79.4 L 213.6 -79.4 L 213.6 -79.4 Q 211.9 -77.8 208.9 -77.8 L 208.9 -77.8 L 208.9 -77.8 Q 206.7 -77.8 205.7 -78.5 Z M 256.8 -76.6 L 269.7 -77.8 L 269.7 -77.8 Q 265.1 -67.7 265.1 -55.9 L 265.1 -55.9 L 265.1 -55.9 Q 263.4 -54.7 260.9 -54.7 L 260.9 -54.7 L 260.9 -54.7 Q 258.3 -54.7 256.7 -55.9 L 256.7 -55.9 L 256.7 -55.9 Q 255.1 -57.1 254.8 -58.3 L 254.8 -58.3 L 254.8 -58.3 Q 253.2 -56.6 250.6 -55.7 L 250.6 -55.7 L 250.6 -55.7 Q 248 -54.7 245.3 -54.7 L 245.3 -54.7 L 245.3 -54.7 Q 242.5 -54.7 240.1 -55.6 L 240.1 -55.6 L 240.1 -55.6 Q 237.7 -56.5 235.9 -58.5 L 235.9 -58.5 L 235.9 -58.5 Q 231.8 -62.9 231.8 -71.1 L 231.8 -71.1 L 231.8 -71.1 Q 231.8 -83.9 238.6 -91.6 L 238.6 -91.6 L 238.6 -91.6 Q 245.7 -99.5 258.1 -99.5 L 258.1 -99.5 L 258.1 -99.5 Q 266.8 -99.5 269.9 -95 L 269.9 -95 L 269.9 -95 Q 270.8 -93.6 270.8 -91.9 L 270.8 -91.9 L 270.8 -91.9 Q 270.8 -90.2 270.1 -88.8 L 270.1 -88.8 L 270.1 -88.8 Q 269.3 -87.4 268.2 -86.2 L 268.2 -86.2 L 268.2 -86.2 Q 265.4 -83.7 262 -83.7 L 262 -83.7 L 262 -83.7 Q 260.7 -83.7 259.4 -84.1 L 259.4 -84.1 L 259.4 -84.1 Q 259.7 -86 259.7 -88.3 L 259.7 -88.3 L 259.7 -88.3 Q 259.7 -90.5 259.5 -91.5 L 259.5 -91.5 L 259.5 -91.5 Q 259.4 -92.5 259 -93.4 L 259 -93.4 L 259 -93.4 Q 258.1 -95.1 256.3 -95.1 L 256.3 -95.1 L 256.3 -95.1 Q 254.5 -95.1 252.5 -93.2 L 252.5 -93.2 L 252.5 -93.2 Q 250.5 -91.2 248.9 -88 L 248.9 -88 L 248.9 -88 Q 245.3 -80.8 245.3 -72.2 L 245.3 -72.2 L 245.3 -72.2 Q 245.3 -68.2 246.9 -65.4 L 246.9 -65.4 L 246.9 -65.4 Q 248.5 -62.3 251.5 -62.3 L 251.5 -62.3 L 251.5 -62.3 Q 252.5 -62.3 253.4 -62.9 L 253.4 -62.9 L 253.4 -62.9 Q 254.4 -63.4 254.7 -63.7 L 254.7 -63.7 L 256.8 -76.6 Z M 275.6 -57.9 L 275.6 -57.9 L 275.6 -57.9 Q 274.1 -59.6 273.5 -62.2 L 273.5 -62.2 L 273.5 -62.2 Q 272.8 -64.8 272.8 -69.1 L 272.8 -69.1 L 272.8 -69.1 Q 272.8 -73.4 274.3 -77.3 L 274.3 -77.3 L 274.3 -77.3 Q 275.7 -81.2 278.4 -84 L 278.4 -84 L 278.4 -84 Q 283.9 -89.9 293 -89.9 L 293 -89.9 L 293 -89.9 Q 296.3 -89.9 298.7 -88.8 L 298.7 -88.8 L 309.6 -89.9 L 304.9 -65 L 304.9 -65 Q 304.7 -64.2 304.7 -62.8 L 304.7 -62.8 L 304.7 -62.8 Q 304.7 -61.4 305.5 -60.5 L 305.5 -60.5 L 305.5 -60.5 Q 306.4 -59.6 307.7 -59.5 L 307.7 -59.5 L 307.7 -59.5 Q 307 -57.3 304.7 -56 L 304.7 -56 L 304.7 -56 Q 302.4 -54.7 299.7 -54.7 L 299.7 -54.7 L 299.7 -54.7 Q 297.1 -54.7 295.4 -55.7 L 295.4 -55.7 L 295.4 -55.7 Q 293.6 -56.7 293.1 -58.4 L 293.1 -58.4 L 293.1 -58.4 Q 292.1 -56.8 289.9 -55.7 L 289.9 -55.7 L 289.9 -55.7 Q 287.7 -54.7 284.8 -54.7 L 284.8 -54.7 L 284.8 -54.7 Q 281.9 -54.7 279.5 -55.5 L 279.5 -55.5 L 279.5 -55.5 Q 277.1 -56.3 275.6 -57.9 Z M 289.1 -83.9 L 289.1 -83.9 L 289.1 -83.9 Q 288.4 -82.8 287.8 -80.8 L 287.8 -80.8 L 287.8 -80.8 Q 287.1 -78.9 286.1 -73.6 L 286.1 -73.6 L 286.1 -73.6 Q 285 -68.4 285 -64.7 L 285 -64.7 L 285 -64.7 Q 285 -61 285.6 -59.9 L 285.6 -59.9 L 285.6 -59.9 Q 286.2 -58.8 287.2 -58.8 L 287.2 -58.8 L 287.2 -58.8 Q 289.2 -58.8 290.7 -60.8 L 290.7 -60.8 L 290.7 -60.8 Q 292.3 -62.7 292.8 -66.2 L 292.8 -66.2 L 296.2 -84.9 L 296.2 -84.9 Q 294.9 -86.1 293.3 -86.1 L 293.3 -86.1 L 293.3 -86.1 Q 291.7 -86.1 290.8 -85.6 L 290.8 -85.6 L 290.8 -85.6 Q 289.9 -85.1 289.1 -83.9 Z M 328.3 -59.5 L 328.3 -59.5 L 328.3 -59.5 Q 326.4 -54.7 320 -54.7 L 320 -54.7 L 320 -54.7 Q 316.8 -54.7 314.8 -57 L 314.8 -57 L 314.8 -57 Q 313.1 -58.8 313.1 -60.9 L 313.1 -60.9 L 313.1 -60.9 Q 313.1 -65.7 315.4 -76.2 L 315.4 -76.2 L 320 -100.8 L 333 -102.1 L 326.8 -69.7 L 326.8 -69.7 Q 325.7 -65 325.7 -63.3 L 325.7 -63.3 L 325.7 -63.3 Q 325.7 -59.7 328.3 -59.5 Z M 349.1 -59.5 L 349.1 -59.5 L 349.1 -59.5 Q 347.1 -54.7 340.8 -54.7 L 340.8 -54.7 L 340.8 -54.7 Q 337.6 -54.7 335.5 -57 L 335.5 -57 L 335.5 -57 Q 333.9 -58.8 333.9 -60.9 L 333.9 -60.9 L 333.9 -60.9 Q 333.9 -65.7 336.1 -76.2 L 336.1 -76.2 L 340.8 -100.8 L 353.8 -102.1 L 347.5 -69.7 L 347.5 -69.7 Q 346.5 -65 346.5 -63.3 L 346.5 -63.3 L 346.5 -63.3 Q 346.5 -59.7 349.1 -59.5 Z M 380.4 -66.8 L 380.4 -66.8 L 380.4 -66.8 Q 382 -65.7 382 -63.3 L 382 -63.3 L 382 -63.3 Q 382 -60.9 380.8 -59.4 L 380.8 -59.4 L 380.8 -59.4 Q 379.6 -57.9 377.6 -56.8 L 377.6 -56.8 L 377.6 -56.8 Q 373.5 -54.7 369.1 -54.7 L 369.1 -54.7 L 369.1 -54.7 Q 364.7 -54.7 362.1 -55.7 L 362.1 -55.7 L 362.1 -55.7 Q 359.5 -56.6 357.8 -58.4 L 357.8 -58.4 L 357.8 -58.4 Q 354.4 -61.8 354.4 -68 L 354.4 -68 L 354.4 -68 Q 354.4 -77.7 359.6 -83.6 L 359.6 -83.6 L 359.6 -83.6 Q 365.3 -89.9 375.1 -89.9 L 375.1 -89.9 L 375.1 -89.9 Q 381.1 -89.9 384.2 -87.4 L 384.2 -87.4 L 384.2 -87.4 Q 386.4 -85.4 386.4 -82.3 L 386.4 -82.3 L 386.4 -82.3 Q 386.4 -71 366.9 -71 L 366.9 -71 L 366.9 -71 Q 366.7 -69.4 366.7 -68 L 366.7 -68 L 366.7 -68 Q 366.7 -65 368 -63.9 L 368 -63.9 L 368 -63.9 Q 369.3 -62.8 371.7 -62.8 L 371.7 -62.8 L 371.7 -62.8 Q 374.2 -62.8 376.8 -63.9 L 376.8 -63.9 L 376.8 -63.9 Q 379.4 -65 380.4 -66.8 Z M 367.4 -73.8 L 367.4 -73.8 L 367.4 -73.8 Q 371.9 -73.8 374.6 -76.6 L 374.6 -76.6 L 374.6 -76.6 Q 377.2 -79.3 377.2 -83.6 L 377.2 -83.6 L 377.2 -83.6 Q 377.2 -85.1 376.6 -85.9 L 376.6 -85.9 L 376.6 -85.9 Q 376.1 -86.7 375 -86.7 L 375 -86.7 L 375 -86.7 Q 373.9 -86.7 373 -86.2 L 373 -86.2 L 373 -86.2 Q 372.1 -85.8 371.1 -84.4 L 371.1 -84.4 L 371.1 -84.4 Q 368.7 -81.2 367.4 -73.8 Z M 408.6 -74 L 408.6 -74 L 408.6 -74 Q 410.9 -78.1 410.9 -82.2 L 410.9 -82.2 L 410.9 -82.2 Q 410.9 -85 408.9 -85 L 408.9 -85 L 408.9 -85 Q 407.4 -85 405.8 -82.4 L 405.8 -82.4 L 405.8 -82.4 Q 404.1 -79.7 403.6 -76.4 L 403.6 -76.4 L 400.3 -56 L 387 -54.7 L 393.6 -88.6 L 404.1 -89.9 L 403 -83.5 L 403 -83.5 Q 406.1 -89.9 413.1 -89.9 L 413.1 -89.9 L 413.1 -89.9 Q 416.9 -89.9 418.9 -88 L 418.9 -88 L 418.9 -88 Q 420.9 -86.1 420.9 -82.1 L 420.9 -82.1 L 420.9 -82.1 Q 420.9 -78.2 418.3 -75.7 L 418.3 -75.7 L 418.3 -75.7 Q 415.7 -73.2 411.3 -73.2 L 411.3 -73.2 L 411.3 -73.2 Q 409.4 -73.2 408.6 -74 Z M 442.3 -63.2 L 442.3 -63.2 L 442.3 -63.2 Q 438.9 -59.8 432.9 -59.8 L 432.9 -59.8 L 432.9 -59.8 Q 425.2 -59.8 423.6 -65.3 L 423.6 -65.3 L 423.6 -65.3 Q 423.1 -67 423.1 -68.9 L 423.1 -68.9 L 423.1 -68.9 Q 423.1 -70.7 423.5 -72.6 L 423.5 -72.6 L 426.5 -88.6 L 439.5 -89.9 L 436 -71.3 L 436 -71.3 Q 435.9 -70.5 435.7 -69.6 L 435.7 -69.6 L 435.7 -69.6 Q 435.5 -68.7 435.5 -67.7 L 435.5 -67.7 L 435.5 -67.7 Q 435.5 -66.8 435.8 -66.2 L 435.8 -66.2 L 435.8 -66.2 Q 436.1 -65.6 436.6 -65.2 L 436.6 -65.2 L 436.6 -65.2 Q 437.3 -64.7 438.7 -64.7 L 438.7 -64.7 L 438.7 -64.7 Q 440.1 -64.7 441.3 -66.4 L 441.3 -66.4 L 441.3 -66.4 Q 442.5 -68 443 -70.9 L 443 -70.9 L 446.6 -88.6 L 459.2 -89.9 L 454.4 -64.8 L 454.4 -64.8 Q 452 -52.5 447.1 -47.6 L 447.1 -47.6 L 447.1 -47.6 Q 444.6 -45.1 441.4 -44.1 L 441.4 -44.1 L 441.4 -44.1 Q 438.2 -43.1 434 -43.1 L 434 -43.1 L 434 -43.1 Q 427.3 -43.1 423.5 -45.3 L 423.5 -45.3 L 423.5 -45.3 Q 419.6 -47.4 419.6 -50.9 L 419.6 -50.9 L 419.6 -50.9 Q 419.6 -53.5 421.6 -55 L 421.6 -55 L 421.6 -55 Q 423.6 -56.5 426.7 -56.5 L 426.7 -56.5 L 426.7 -56.5 Q 429.3 -56.5 431.4 -55.4 L 431.4 -55.4 L 431.4 -55.4 Q 432.6 -54.7 433.2 -53.8 L 433.2 -53.8 L 433.2 -53.8 Q 431.7 -52.5 431.7 -50.4 L 431.7 -50.4 L 431.7 -50.4 Q 431.7 -47.6 434.3 -47.6 L 434.3 -47.6 L 434.3 -47.6 Q 438.5 -47.6 440.9 -57.3 L 440.9 -57.3 L 440.9 -57.3 Q 441.6 -60.2 442.3 -63.2 Z" fill="url(#editing-gradient-gradient)"></path></g></g><style>text {
  font-size: 64px;
  font-family: Arial Black;
  dominant-baseline: central;
  text-anchor: middle;
}</style></svg>